# xmcd CD database file generated by OrangeCD 5.2
#
# Track frame offsets:
#	150
#	41734
#	84027
#	118345
#
# Disc length: 1870 seconds
#
# Revision: 2
# Processed by: cddbd v1.5PL3 Copyright (c) Steve Scherf et al.
# Submitted via: OrangeCD 5.2
#
DISCID=2a074c04
DTITLE=Grateful Dead - 10/27/79  Cape Cod Coliseum, South Yarmouth, MA  Disk 3
DYEAR=1900
DGENRE=Blues
TTITLE0=Not Fade Away
TTITLE1=Black Peter
TTITLE2=Around and Around
TTITLE3=One More Saturday Night
EXTD=
EXTT0=
EXTT1=
EXTT2=
EXTT3=
PLAYORDER=
